<?xml version="1.0" standalone="no"?>
<!DOCTYPE svg PUBLIC "-//W3C//DTD SVG 20010904//EN"
 "http://www.w3.org/TR/2001/REC-SVG-20010904/DTD/svg10.dtd">
<svg version="1.0" xmlns="http://www.w3.org/2000/svg"
 width="290.000000pt" height="290.000000pt" viewBox="0 0 290.000000 290.000000"
 preserveAspectRatio="xMidYMid meet">
<metadata>
Created by potrace 1.14, written by Peter Selinger 2001-2017
</metadata>
<g transform="translate(0.000000,290.000000) scale(0.100000,-0.100000)"
fill="#000000" stroke="none">
<path d="M0 2875 l0 -24 35 20 c19 12 35 23 35 25 0 2 -16 4 -35 4 -31 0 -35
-3 -35 -25z"/>
<path d="M48 2864 c-45 -33 -60 -54 -40 -54 7 0 114 71 131 86 2 2 -7 4 -20 4
-13 0 -45 -17 -71 -36z"/>
<path d="M880 2874 c-6 -16 -13 -36 -16 -44 -11 -29 -34 -175 -34 -213 0 -47
-17 -73 -132 -195 -48 -51 -110 -127 -138 -170 -29 -42 -54 -79 -57 -82 -20
-20 137 317 192 414 25 43 44 81 42 82 -7 7 -89 -146 -172 -319 -125 -259
-220 -564 -241 -777 -2 -25 -9 -88 -14 -140 -25 -241 -30 -361 -21 -525 11
-193 28 -291 76 -420 32 -86 33 -89 9 -60 -59 73 -136 239 -169 366 -32 122
-55 345 -55 538 0 101 -2 182 -5 179 -8 -8 -7 -364 0 -440 27 -265 94 -462
222 -656 81 -123 216 -212 300 -199 28 5 31 4 21 -11 -19 -31 -69 -65 -129
-89 -51 -21 -64 -22 -100 -13 -59 16 -123 85 -170 183 -22 45 -37 71 -34 57
11 -42 105 -226 105 -206 0 26 41 -34 55 -80 l16 -54 867 2 867 3 47 69 c62
91 128 247 184 442 45 157 46 162 60 404 21 363 20 1126 -2 1149 -2 2 -4 -62
-4 -143 0 -171 8 -167 -110 -60 -127 116 -232 236 -217 250 2 2 30 -7 61 -22
32 -14 60 -23 63 -20 3 3 -16 15 -43 26 -115 47 -113 45 -186 189 -92 185
-164 405 -183 564 -4 26 -10 47 -14 47 -5 0 -11 -30 -14 -67 -3 -38 -22 -122
-42 -187 -20 -66 -50 -174 -67 -240 -17 -67 -33 -123 -35 -126 -3 -3 -3 81 0
185 6 172 22 299 53 415 5 18 4 22 -4 15 -19 -17 -51 -207 -63 -364 -6 -84 -9
-261 -6 -394 3 -207 7 -252 25 -312 11 -38 19 -71 17 -73 -9 -9 -77 42 -115
85 -44 51 -94 148 -115 227 -7 28 -14 41 -14 28 -1 -29 33 -132 64 -194 13
-27 34 -81 46 -120 12 -40 30 -90 40 -110 11 -21 18 -38 16 -38 -2 0 -39 18
-82 39 -44 21 -97 44 -119 49 -44 13 -198 107 -269 165 -27 22 -65 65 -86 96
-36 53 -131 218 -131 228 0 2 10 -3 22 -11 12 -9 28 -16 36 -16 25 0 -7 38
-41 49 -29 10 -36 19 -49 64 -55 178 -56 379 -4 552 17 53 13 76 -4 29z m1030
-379 c18 -49 58 -145 90 -212 l58 -121 -37 15 c-79 34 -280 25 -327 -13 -18
-14 -17 -15 11 -9 77 17 217 17 292 -1 71 -17 78 -21 107 -62 112 -162 209
-272 298 -337 l57 -43 -1 -105 c0 -59 -3 -118 -6 -132 -4 -25 -6 -23 -34 27
-17 29 -39 63 -50 75 -20 21 -20 21 1 39 31 27 26 33 -16 23 -33 -7 -43 -4
-77 19 -21 15 -51 35 -67 45 -27 18 -28 20 -14 40 27 39 17 53 -15 22 -29 -27
-30 -28 -77 -14 -28 8 -90 14 -148 13 -92 0 -120 -6 -197 -38 -37 -16 -81 136
-92 317 -6 103 24 271 94 517 22 80 46 166 53 192 l11 47 27 -107 c15 -59 42
-147 59 -197z m-1050 -157 c11 -43 20 -79 20 -80 0 -2 -26 -4 -58 -5 -66 -3
-137 -16 -204 -37 l-48 -15 23 34 c12 19 69 96 127 172 l105 138 8 -65 c4 -36
16 -100 27 -142z m14 -118 c19 0 28 -12 50 -64 67 -158 168 -292 270 -360 48
-32 300 -146 385 -175 37 -12 81 -15 81 -5 0 3 -11 15 -24 25 -14 11 -32 43
-42 72 -9 28 -19 59 -22 67 -3 10 3 8 19 -6 36 -32 84 -54 119 -54 16 0 30 -5
30 -10 0 -6 18 -1 40 10 61 31 71 23 12 -10 -29 -17 -50 -35 -48 -39 3 -5 -4
-17 -15 -27 -12 -10 -27 -31 -35 -46 -14 -26 -13 -26 14 -18 15 5 50 20 77 34
64 32 106 36 57 5 -84 -54 -133 -289 -86 -411 29 -76 106 -128 192 -129 121
-2 214 91 247 248 19 89 18 137 -4 201 -10 28 -15 52 -11 52 12 0 83 -55 112
-86 14 -16 42 -59 62 -96 34 -65 35 -69 20 -103 -8 -19 -12 -35 -9 -35 3 0 22
19 43 42 l37 41 6 -59 c5 -58 -3 -229 -20 -431 -9 -106 -19 -130 -77 -188 -13
-13 -24 -29 -24 -35 0 -5 -4 -10 -9 -10 -6 0 -30 -13 -54 -30 -25 -16 -48 -30
-51 -30 -3 0 -32 -13 -65 -29 -119 -57 -468 -128 -797 -161 -143 -14 -232 7
-341 80 -51 35 -123 73 -123 65 0 -3 -10 4 -23 15 -23 20 -135 90 -145 90 -3
0 -25 15 -50 32 -120 89 -162 139 -207 253 -25 64 -27 81 -31 243 -2 109 -9
196 -19 235 -18 77 -33 169 -28 184 2 6 12 9 22 6 11 -3 25 -31 43 -86 l26
-82 -5 70 c-6 90 10 150 50 188 39 37 122 77 160 77 l28 0 -34 -30 c-50 -44
-79 -118 -85 -221 -6 -116 15 -190 70 -242 22 -21 46 -36 54 -33 7 3 16 1 19
-4 9 -14 96 0 131 21 17 11 43 36 57 56 59 86 75 294 29 381 l-22 43 62 -42
62 -42 -22 37 c-12 20 -18 34 -12 31 27 -16 5 19 -42 68 -47 48 -61 56 -123
72 -38 9 -77 19 -85 22 -8 3 -40 6 -70 7 -49 1 -56 4 -76 33 -29 44 -50 26
-28 -25 8 -20 12 -33 8 -29 -4 4 -29 -5 -56 -20 -51 -28 -49 -28 -120 2 -27
11 -22 -18 8 -48 l26 -26 -26 -53 c-14 -28 -26 -58 -26 -65 0 -7 -6 -13 -14
-13 -9 0 -15 15 -18 46 -2 25 0 47 3 50 3 2 9 34 13 71 11 106 63 241 139 364
15 24 84 50 172 65 108 18 139 20 143 12 2 -5 14 -8 26 -8z m1063 -36 c-3 -3
-12 -4 -19 -1 -8 3 -5 6 6 6 11 1 17 -2 13 -5z m-1097 -604 c6 -12 10 -40 8
-63 -2 -33 -8 -44 -30 -57 -54 -30 -94 33 -64 103 13 31 20 37 45 37 20 0 34
-7 41 -20z m-493 -72 c-3 -8 -6 -5 -6 6 -1 11 2 17 5 13 3 -3 4 -12 1 -19z
m1643 -18 c29 -29 27 -91 -4 -127 -21 -25 -26 -26 -50 -15 -68 31 -47 155 27
161 4 1 16 -8 27 -19z m-1630 -9 c0 -5 3 -17 7 -27 5 -13 3 -15 -8 -10 -8 4
-6 1 4 -7 18 -15 24 -43 7 -32 -6 3 -7 -1 -4 -9 3 -9 10 -16 15 -16 5 0 9 -9
9 -21 0 -11 -4 -17 -10 -14 -6 3 -7 -1 -4 -9 3 -9 10 -16 15 -16 5 0 9 -16 7
-35 -1 -19 -6 -35 -11 -35 -5 0 -2 -11 7 -25 19 -28 21 -62 5 -67 -9 -3 -9
-25 0 -86 7 -46 9 -91 6 -102 -4 -11 -2 -20 3 -20 8 0 30 -61 35 -95 0 -5 9
-19 19 -29 11 -12 16 -28 12 -40 -4 -15 -2 -17 4 -8 7 10 15 5 34 -20 43 -57
82 -92 121 -112 21 -11 49 -30 63 -43 13 -12 28 -23 32 -23 4 0 42 -24 85 -52
l78 -51 -30 -13 c-16 -7 -47 -10 -68 -7 -69 9 -221 -66 -222 -110 -1 -27 -31
-78 -42 -72 -5 4 -7 10 -4 15 3 5 1 11 -5 15 -5 3 -10 0 -10 -7 -1 -7 -16 4
-35 26 -19 21 -32 43 -29 47 3 5 1 9 -4 9 -17 0 -42 63 -30 77 8 10 7 12 -5 7
-12 -4 -20 9 -36 63 -41 140 -53 234 -58 439 -4 177 -3 203 12 218 15 15 15
16 0 16 -15 0 -16 9 -10 73 4 39 10 76 13 81 3 6 7 33 9 60 2 28 4 57 5 64 2
14 18 17 18 3z m1587 -326 c0 -8 -4 -12 -9 -9 -4 3 -8 9 -8 15 0 5 4 9 8 9 5
0 9 -7 9 -15z m83 -26 c0 -5 -8 -9 -17 -8 -11 0 -13 3 -5 6 6 2 9 10 6 15 -4
7 -2 8 4 4 7 -4 12 -11 12 -17z m370 -509 c0 -5 -6 -10 -14 -10 -16 0 -27 -58
-12 -64 7 -3 7 -8 -2 -14 -7 -5 -10 -16 -6 -27 5 -11 4 -16 -3 -12 -6 4 -8 -3
-5 -18 5 -30 2 -30 -46 -6 -20 10 -41 19 -47 20 -5 1 -28 4 -49 8 l-39 6 67
34 c37 19 86 47 108 64 46 32 48 33 48 19z m-551 -209 c7 -5 9 -11 4 -14 -12
-8 -211 -58 -220 -56 -4 1 -15 0 -23 -4 -35 -13 -145 -35 -152 -31 -4 3 -8 0
-8 -6 0 -7 -8 -9 -21 -5 -16 5 -19 4 -14 -5 6 -10 -1 -11 -31 -6 -104 19 -133
28 -138 43 -5 13 -4 14 8 4 11 -9 68 -3 260 29 135 22 259 42 276 43 16 1 30
5 30 10 0 9 12 9 29 -2z m36 -1 c3 -5 1 -10 -4 -10 -6 0 -11 5 -11 10 0 6 2
10 4 10 3 0 8 -4 11 -10z"/>
<path d="M1825 1806 c-27 -12 -23 -13 45 -8 41 2 92 0 113 -6 20 -6 35 -6 32
-2 -17 28 -140 38 -190 16z"/>
<path d="M840 1869 c30 -5 72 -18 93 -29 45 -24 48 -24 41 -6 -9 23 -80 46
-137 45 l-52 -1 55 -9z"/>
<path d="M518 1253 c7 -3 16 -2 19 1 4 3 -2 6 -13 5 -11 0 -14 -3 -6 -6z"/>
<path d="M555 1210 c-3 -5 1 -10 9 -10 9 0 16 5 16 10 0 6 -4 10 -9 10 -6 0
-13 -4 -16 -10z"/>
<path d="M2216 1115 c4 -8 15 -15 26 -15 17 0 18 3 8 15 -7 8 -19 15 -26 15
-8 0 -11 -6 -8 -15z"/>
<path d="M2163 1083 c9 -9 19 -14 23 -11 10 10 -6 28 -24 28 -15 0 -15 -1 1
-17z"/>
<path d="M1032 898 c9 -143 22 -191 67 -238 45 -47 100 -63 202 -58 91 4 120
20 159 89 20 36 25 61 28 140 4 88 2 99 -17 118 -15 15 -28 19 -49 15 -15 -3
-70 1 -122 10 -52 8 -122 18 -155 21 -33 3 -74 8 -90 11 l-30 5 7 -113z m208
71 c73 -17 81 -18 141 -20 32 -1 62 -5 68 -9 6 -3 16 -31 23 -61 15 -73 -2
-154 -42 -197 -16 -18 -26 -32 -22 -32 4 -1 -9 -9 -28 -20 -71 -39 -213 -19
-273 38 -56 54 -72 191 -32 276 17 34 19 36 69 36 28 0 71 -5 96 -11z"/>
<path d="M1185 651 c-3 -5 -2 -12 3 -15 5 -3 9 1 9 9 0 17 -3 19 -12 6z"/>
<path d="M508 350 c-10 -10 -14 -22 -9 -24 4 -3 13 6 19 19 14 30 12 31 -10 5z"/>
<path d="M1330 310 c0 -5 5 -10 11 -10 5 0 7 5 4 10 -3 6 -8 10 -11 10 -2 0
-4 -4 -4 -10z"/>
<path d="M2627 2753 c-11 -312 -81 -466 -252 -554 -36 -19 -65 -39 -65 -45 0
-14 33 -24 79 -24 33 0 102 -17 187 -47 110 -37 208 -163 300 -383 l23 -55 1
323 c0 294 -2 323 -17 329 -9 4 -19 1 -21 -5 -2 -7 -15 -12 -29 -12 -19 0 -23
4 -18 19 3 11 1 22 -4 26 -7 4 -8 -1 -4 -12 4 -11 2 -15 -3 -10 -5 5 -37 119
-70 254 -48 191 -57 241 -43 222 16 -20 15 -14 -5 31 -13 30 -26 63 -29 73
-16 45 -25 5 -30 -130z"/>
<path d="M2361 2864 c0 -11 3 -14 6 -6 3 7 2 16 -1 19 -3 4 -6 -2 -5 -13z"/>
<path d="M2372 2820 c0 -14 2 -19 5 -12 2 6 2 18 0 25 -3 6 -5 1 -5 -13z"/>
<path d="M2381 2774 c0 -11 3 -14 6 -6 3 7 2 16 -1 19 -3 4 -6 -2 -5 -13z"/>
<path d="M2710 2746 c0 -26 177 -263 188 -251 3 3 -8 20 -25 38 -17 17 -56 70
-88 117 -65 95 -75 108 -75 96z"/>
<path d="M2392 2720 c0 -14 2 -19 5 -12 2 6 2 18 0 25 -3 6 -5 1 -5 -13z"/>
<path d="M125 2679 c-4 -6 -5 -12 -2 -15 2 -3 7 2 10 11 7 17 1 20 -8 4z"/>
<path d="M2405 2635 c9 -79 23 -234 30 -309 3 -38 8 -72 10 -75 12 -11 3 126
-15 264 -20 145 -36 221 -25 120z"/>
<path d="M96 2619 c-8 -19 -33 -76 -55 -127 -23 -51 -41 -105 -40 -120 0 -17
23 30 59 122 33 83 57 152 55 154 -3 3 -11 -10 -19 -29z"/>
<path d="M2266 2061 c11 -12 104 -52 104 -46 0 6 -96 55 -107 55 -4 0 -3 -4 3
-9z"/>
<path d="M2891 204 c0 -6 -28 -53 -60 -105 -33 -52 -58 -95 -57 -97 8 -8 33
12 50 41 56 94 77 139 73 154 -3 10 -5 13 -6 7z"/>
<path d="M1 97 l-1 -97 50 0 c27 0 50 3 50 6 0 3 -13 25 -30 49 -16 23 -38 65
-49 91 l-19 49 -1 -98z"/>
<path d="M360 112 c0 -19 43 -112 52 -112 4 0 -1 18 -12 40 -11 21 -20 46 -20
54 0 8 -4 18 -10 21 -5 3 -10 2 -10 -3z"/>
</g>
</svg>
